<svg id="visual" viewBox="0 0 900 450" width="900" height="450" xmlns="http://www.w3.org/2000/svg" xmlns:xlink="http://www.w3.org/1999/xlink" version="1.1"><path d="M0 10L18.8 28C37.7 46 75.3 82 112.8 98.5C150.3 115 187.7 112 225.2 101.5C262.7 91 300.3 73 337.8 66.3C375.3 59.7 412.7 64.3 450.2 65.2C487.7 66 525.3 63 562.8 64.5C600.3 66 637.7 72 675.2 77.2C712.7 82.3 750.3 86.7 787.8 78.3C825.3 70 862.7 49 881.3 38.5L900 28L900 0L881.3 0C862.7 0 825.3 0 787.8 0C750.3 0 712.7 0 675.2 0C637.7 0 600.3 0 562.8 0C525.3 0 487.7 0 450.2 0C412.7 0 375.3 0 337.8 0C300.3 0 262.7 0 225.2 0C187.7 0 150.3 0 112.8 0C75.3 0 37.7 0 18.8 0L0 0Z" fill="#f6744c"></path><path d="M0 217L18.8 207.3C37.7 197.7 75.3 178.3 112.8 189.7C150.3 201 187.7 243 225.2 242.2C262.7 241.3 300.3 197.7 337.8 169.8C375.3 142 412.7 130 450.2 136.8C487.7 143.7 525.3 169.3 562.8 168.7C600.3 168 637.7 141 675.2 130.5C712.7 120 750.3 126 787.8 152.2C825.3 178.3 862.7 224.7 881.3 247.8L900 271L900 26L881.3 36.5C862.7 47 825.3 68 787.8 76.3C750.3 84.7 712.7 80.3 675.2 75.2C637.7 70 600.3 64 562.8 62.5C525.3 61 487.7 64 450.2 63.2C412.7 62.3 375.3 57.7 337.8 64.3C300.3 71 262.7 89 225.2 99.5C187.7 110 150.3 113 112.8 96.5C75.3 80 37.7 44 18.8 26L0 8Z" fill="#f16237"></path><path d="M0 276L18.8 260.2C37.7 244.3 75.3 212.7 112.8 217.2C150.3 221.7 187.7 262.3 225.2 265.3C262.7 268.3 300.3 233.7 337.8 213.3C375.3 193 412.7 187 450.2 191.5C487.7 196 525.3 211 562.8 204.3C600.3 197.7 637.7 169.3 675.2 164.2C712.7 159 750.3 177 787.8 207C825.3 237 862.7 279 881.3 300L900 321L900 269L881.3 245.8C862.7 222.7 825.3 176.3 787.8 150.2C750.3 124 712.7 118 675.2 128.5C637.7 139 600.3 166 562.8 166.7C525.3 167.3 487.7 141.7 450.2 134.8C412.7 128 375.3 140 337.8 167.8C300.3 195.7 262.7 239.3 225.2 240.2C187.7 241 150.3 199 112.8 187.7C75.3 176.3 37.7 195.7 18.8 205.3L0 215Z" fill="#eb4e20"></path><path d="M0 352L18.8 334C37.7 316 75.3 280 112.8 280C150.3 280 187.7 316 225.2 323.5C262.7 331 300.3 310 337.8 291.3C375.3 272.7 412.7 256.3 450.2 257.8C487.7 259.3 525.3 278.7 562.8 271.2C600.3 263.7 637.7 229.3 675.2 219.7C712.7 210 750.3 225 787.8 247.5C825.3 270 862.7 300 881.3 315L900 330L900 319L881.3 298C862.7 277 825.3 235 787.8 205C750.3 175 712.7 157 675.2 162.2C637.7 167.3 600.3 195.7 562.8 202.3C525.3 209 487.7 194 450.2 189.5C412.7 185 375.3 191 337.8 211.3C300.3 231.7 262.7 266.3 225.2 263.3C187.7 260.3 150.3 219.7 112.8 215.2C75.3 210.7 37.7 242.3 18.8 258.2L0 274Z" fill="#e53700"></path><path d="M0 375L18.8 375C37.7 375 75.3 375 112.8 377.2C150.3 379.3 187.7 383.7 225.2 382.8C262.7 382 300.3 376 337.8 365.5C375.3 355 412.7 340 450.2 340.8C487.7 341.7 525.3 358.3 562.8 364.3C600.3 370.3 637.7 365.7 675.2 363.3C712.7 361 750.3 361 787.8 367.8C825.3 374.7 862.7 388.3 881.3 395.2L900 402L900 328L881.3 313C862.7 298 825.3 268 787.8 245.5C750.3 223 712.7 208 675.2 217.7C637.7 227.3 600.3 261.7 562.8 269.2C525.3 276.7 487.7 257.3 450.2 255.8C412.7 254.3 375.3 270.7 337.8 289.3C300.3 308 262.7 329 225.2 321.5C187.7 314 150.3 278 112.8 278C75.3 278 37.7 314 18.8 332L0 350Z" fill="#d03105"></path><path d="M0 415L18.8 418.8C37.7 422.7 75.3 430.3 112.8 431.2C150.3 432 187.7 426 225.2 424.5C262.7 423 300.3 426 337.8 420.7C375.3 415.3 412.7 401.7 450.2 403.8C487.7 406 525.3 424 562.8 420.3C600.3 416.7 637.7 391.3 675.2 385.3C712.7 379.3 750.3 392.7 787.8 401.7C825.3 410.7 862.7 415.3 881.3 417.7L900 420L900 400L881.3 393.2C862.7 386.3 825.3 372.7 787.8 365.8C750.3 359 712.7 359 675.2 361.3C637.7 363.7 600.3 368.3 562.8 362.3C525.3 356.3 487.7 339.7 450.2 338.8C412.7 338 375.3 353 337.8 363.5C300.3 374 262.7 380 225.2 380.8C187.7 381.7 150.3 377.3 112.8 375.2C75.3 373 37.7 373 18.8 373L0 373Z" fill="#bc2c09"></path><path d="M0 451L18.8 451C37.7 451 75.3 451 112.8 451C150.3 451 187.7 451 225.2 451C262.7 451 300.3 451 337.8 451C375.3 451 412.7 451 450.2 451C487.7 451 525.3 451 562.8 451C600.3 451 637.7 451 675.2 451C712.7 451 750.3 451 787.8 451C825.3 451 862.7 451 881.3 451L900 451L900 418L881.3 415.7C862.7 413.3 825.3 408.7 787.8 399.7C750.3 390.7 712.7 377.3 675.2 383.3C637.7 389.3 600.3 414.7 562.8 418.3C525.3 422 487.7 404 450.2 401.8C412.7 399.7 375.3 413.3 337.8 418.7C300.3 424 262.7 421 225.2 422.5C187.7 424 150.3 430 112.8 429.2C75.3 428.3 37.7 420.7 18.8 416.8L0 413Z" fill="#a8270b"></path></svg>